<svg width="346" height="195" viewBox="0 0 346 195" fill="none" xmlns="http://www.w3.org/2000/svg">
<g filter="url(#filter0_b_2513_17525)">
<rect x="105" y="15" width="130" height="130" rx="65" fill="url(#paint0_linear_2513_17525)"/>
<rect x="105.75" y="15.75" width="128.5" height="128.5" rx="64.25" stroke="url(#paint1_radial_2513_17525)" stroke-width="1.5"/>
</g>
<path d="M5.83818 169.592H9.11418V176.924H17.7202V169.592H20.9962V188H17.7202V179.888H9.11418V188H5.83818V169.592ZM24.1997 181.76C24.1997 180.772 24.373 179.879 24.7197 179.082C25.0837 178.267 25.569 177.574 26.1757 177.002C26.7823 176.43 27.5017 175.988 28.3337 175.676C29.1657 175.364 30.0497 175.208 30.9857 175.208C31.9217 175.208 32.8057 175.364 33.6377 175.676C34.4697 175.988 35.189 176.43 35.7957 177.002C36.4023 177.574 36.879 178.267 37.2257 179.082C37.5897 179.879 37.7717 180.772 37.7717 181.76C37.7717 182.748 37.5897 183.649 37.2257 184.464C36.879 185.261 36.4023 185.946 35.7957 186.518C35.189 187.09 34.4697 187.532 33.6377 187.844C32.8057 188.156 31.9217 188.312 30.9857 188.312C30.0497 188.312 29.1657 188.156 28.3337 187.844C27.5017 187.532 26.7823 187.09 26.1757 186.518C25.569 185.946 25.0837 185.261 24.7197 184.464C24.373 183.649 24.1997 182.748 24.1997 181.76ZM27.3197 181.76C27.3197 182.245 27.3977 182.713 27.5537 183.164C27.727 183.615 27.9697 184.013 28.2817 184.36C28.611 184.707 29.001 184.984 29.4517 185.192C29.9023 185.4 30.4137 185.504 30.9857 185.504C31.5577 185.504 32.069 185.4 32.5197 185.192C32.9703 184.984 33.3517 184.707 33.6637 184.36C33.993 184.013 34.2357 183.615 34.3917 183.164C34.565 182.713 34.6517 182.245 34.6517 181.76C34.6517 181.275 34.565 180.807 34.3917 180.356C34.2357 179.905 33.993 179.507 33.6637 179.16C33.3517 178.813 32.9703 178.536 32.5197 178.328C32.069 178.12 31.5577 178.016 30.9857 178.016C30.4137 178.016 29.9023 178.12 29.4517 178.328C29.001 178.536 28.611 178.813 28.2817 179.16C27.9697 179.507 27.727 179.905 27.5537 180.356C27.3977 180.807 27.3197 181.275 27.3197 181.76ZM39.0028 175.52H42.3828L45.0868 184.256H45.1388L47.6608 175.52H51.0408L53.7448 184.256H53.7968L56.3968 175.52H59.5428L55.3048 188H52.2108L49.2468 179.472H49.1948L46.5688 188H43.3448L39.0028 175.52ZM77.6075 179.264C77.2435 178.883 76.8622 178.579 76.4635 178.354C76.0649 178.129 75.6575 178.016 75.2415 178.016C74.6695 178.016 74.1582 178.12 73.7075 178.328C73.2569 178.536 72.8669 178.813 72.5375 179.16C72.2255 179.507 71.9829 179.905 71.8095 180.356C71.6535 180.807 71.5755 181.275 71.5755 181.76C71.5755 182.245 71.6535 182.713 71.8095 183.164C71.9829 183.615 72.2255 184.013 72.5375 184.36C72.8669 184.707 73.2569 184.984 73.7075 185.192C74.1582 185.4 74.6695 185.504 75.2415 185.504C75.7269 185.504 76.1775 185.409 76.5935 185.218C77.0095 185.01 77.3649 184.715 77.6595 184.334L79.7395 186.57C79.4275 186.882 79.0635 187.151 78.6475 187.376C78.2489 187.601 77.8415 187.783 77.4255 187.922C77.0095 188.061 76.6109 188.156 76.2295 188.208C75.8482 188.277 75.5189 188.312 75.2415 188.312C74.3055 188.312 73.4215 188.156 72.5895 187.844C71.7575 187.532 71.0382 187.09 70.4315 186.518C69.8249 185.946 69.3395 185.261 68.9755 184.464C68.6289 183.649 68.4555 182.748 68.4555 181.76C68.4555 180.772 68.6289 179.879 68.9755 179.082C69.3395 178.267 69.8249 177.574 70.4315 177.002C71.0382 176.43 71.7575 175.988 72.5895 175.676C73.4215 175.364 74.3055 175.208 75.2415 175.208C76.0389 175.208 76.8362 175.364 77.6335 175.676C78.4482 175.971 79.1589 176.447 79.7655 177.106L77.6075 179.264ZM89.4225 186.284H89.3445C88.8938 186.995 88.3218 187.515 87.6285 187.844C86.9352 188.156 86.1725 188.312 85.3405 188.312C84.7685 188.312 84.2052 188.234 83.6505 188.078C83.1132 187.922 82.6278 187.688 82.1945 187.376C81.7785 187.064 81.4405 186.674 81.1805 186.206C80.9205 185.738 80.7905 185.192 80.7905 184.568C80.7905 183.892 80.9118 183.32 81.1545 182.852C81.3972 182.367 81.7178 181.968 82.1165 181.656C82.5325 181.327 83.0092 181.067 83.5465 180.876C84.0838 180.685 84.6385 180.547 85.2105 180.46C85.7998 180.356 86.3892 180.295 86.9785 180.278C87.5678 180.243 88.1225 180.226 88.6425 180.226H89.4225V179.888C89.4225 179.108 89.1538 178.527 88.6165 178.146C88.0792 177.747 87.3945 177.548 86.5625 177.548C85.9038 177.548 85.2885 177.669 84.7165 177.912C84.1445 178.137 83.6505 178.449 83.2345 178.848L81.5965 177.21C82.2898 176.499 83.0958 175.988 84.0145 175.676C84.9505 175.364 85.9125 175.208 86.9005 175.208C87.7845 175.208 88.5298 175.312 89.1365 175.52C89.7432 175.711 90.2458 175.962 90.6445 176.274C91.0432 176.586 91.3465 176.95 91.5545 177.366C91.7798 177.765 91.9358 178.172 92.0225 178.588C92.1265 179.004 92.1872 179.411 92.2045 179.81C92.2218 180.191 92.2305 180.529 92.2305 180.824V188H89.4225V186.284ZM89.2405 182.41H88.5905C88.1572 182.41 87.6718 182.427 87.1345 182.462C86.5972 182.497 86.0858 182.583 85.6005 182.722C85.1325 182.843 84.7338 183.034 84.4045 183.294C84.0752 183.537 83.9105 183.883 83.9105 184.334C83.9105 184.629 83.9712 184.88 84.0925 185.088C84.2312 185.279 84.4045 185.443 84.6125 185.582C84.8205 185.721 85.0545 185.825 85.3145 185.894C85.5745 185.946 85.8345 185.972 86.0945 185.972C87.1692 185.972 87.9578 185.721 88.4605 185.218C88.9805 184.698 89.2405 183.996 89.2405 183.112V182.41ZM95.5873 175.52H98.5513V177.522H98.6033C98.898 176.898 99.3487 176.361 99.9553 175.91C100.562 175.442 101.385 175.208 102.425 175.208C103.257 175.208 103.959 175.347 104.531 175.624C105.121 175.901 105.597 176.265 105.961 176.716C106.325 177.167 106.585 177.687 106.741 178.276C106.897 178.865 106.975 179.481 106.975 180.122V188H103.855V181.682C103.855 181.335 103.838 180.954 103.803 180.538C103.769 180.105 103.673 179.706 103.517 179.342C103.379 178.961 103.153 178.649 102.841 178.406C102.529 178.146 102.105 178.016 101.567 178.016C101.047 178.016 100.605 178.103 100.241 178.276C99.8947 178.449 99.6 178.683 99.3573 178.978C99.132 179.273 98.9673 179.611 98.8633 179.992C98.7593 180.373 98.7073 180.772 98.7073 181.188V188H95.5873V175.52ZM118.418 169.592H121.694V188H118.418V169.592ZM133.426 169.592H140.602C141.295 169.592 141.98 169.679 142.656 169.852C143.332 170.008 143.93 170.277 144.45 170.658C144.987 171.022 145.421 171.499 145.75 172.088C146.079 172.677 146.244 173.388 146.244 174.22C146.244 175.26 145.949 176.118 145.36 176.794C144.771 177.47 143.999 177.955 143.046 178.25V178.302C143.618 178.371 144.147 178.536 144.632 178.796C145.135 179.039 145.559 179.359 145.906 179.758C146.253 180.139 146.521 180.59 146.712 181.11C146.92 181.613 147.024 182.159 147.024 182.748C147.024 183.753 146.825 184.594 146.426 185.27C146.027 185.929 145.499 186.466 144.84 186.882C144.199 187.281 143.453 187.567 142.604 187.74C141.772 187.913 140.923 188 140.056 188H133.426V169.592ZM136.702 177.08H139.692C140.784 177.08 141.599 176.872 142.136 176.456C142.691 176.023 142.968 175.459 142.968 174.766C142.968 173.969 142.682 173.379 142.11 172.998C141.555 172.599 140.654 172.4 139.406 172.4H136.702V177.08ZM136.702 185.192H139.718C140.134 185.192 140.576 185.166 141.044 185.114C141.529 185.062 141.971 184.941 142.37 184.75C142.769 184.559 143.098 184.291 143.358 183.944C143.618 183.58 143.748 183.095 143.748 182.488C143.748 181.517 143.427 180.841 142.786 180.46C142.162 180.079 141.183 179.888 139.848 179.888H136.702V185.192ZM152.495 182.852C152.599 183.788 152.963 184.516 153.587 185.036C154.211 185.556 154.965 185.816 155.849 185.816C156.629 185.816 157.279 185.66 157.799 185.348C158.337 185.019 158.805 184.611 159.203 184.126L161.439 185.816C160.711 186.717 159.897 187.359 158.995 187.74C158.094 188.121 157.149 188.312 156.161 188.312C155.225 188.312 154.341 188.156 153.509 187.844C152.677 187.532 151.958 187.09 151.351 186.518C150.745 185.946 150.259 185.261 149.895 184.464C149.549 183.649 149.375 182.748 149.375 181.76C149.375 180.772 149.549 179.879 149.895 179.082C150.259 178.267 150.745 177.574 151.351 177.002C151.958 176.43 152.677 175.988 153.509 175.676C154.341 175.364 155.225 175.208 156.161 175.208C157.028 175.208 157.817 175.364 158.527 175.676C159.255 175.971 159.871 176.404 160.373 176.976C160.893 177.548 161.292 178.259 161.569 179.108C161.864 179.94 162.011 180.902 162.011 181.994V182.852H152.495ZM158.891 180.512C158.874 179.593 158.588 178.874 158.033 178.354C157.479 177.817 156.707 177.548 155.719 177.548C154.783 177.548 154.038 177.817 153.483 178.354C152.946 178.891 152.617 179.611 152.495 180.512H158.891ZM181.569 186.648C179.298 187.861 176.759 188.468 173.951 188.468C172.53 188.468 171.221 188.243 170.025 187.792C168.846 187.324 167.824 186.674 166.957 185.842C166.108 184.993 165.44 183.979 164.955 182.8C164.47 181.621 164.227 180.313 164.227 178.874C164.227 177.401 164.47 176.066 164.955 174.87C165.44 173.657 166.108 172.625 166.957 171.776C167.824 170.927 168.846 170.277 170.025 169.826C171.221 169.358 172.53 169.124 173.951 169.124C175.355 169.124 176.672 169.297 177.903 169.644C179.134 169.973 180.234 170.571 181.205 171.438L178.787 173.882C178.198 173.31 177.478 172.868 176.629 172.556C175.797 172.244 174.913 172.088 173.977 172.088C173.024 172.088 172.157 172.261 171.377 172.608C170.614 172.937 169.956 173.405 169.401 174.012C168.846 174.601 168.413 175.295 168.101 176.092C167.806 176.889 167.659 177.747 167.659 178.666C167.659 179.654 167.806 180.564 168.101 181.396C168.413 182.228 168.846 182.947 169.401 183.554C169.956 184.161 170.614 184.637 171.377 184.984C172.157 185.331 173.024 185.504 173.977 185.504C174.809 185.504 175.589 185.426 176.317 185.27C177.062 185.114 177.721 184.871 178.293 184.542V180.2H174.523V177.236H181.569V186.648ZM184.541 181.76C184.541 180.772 184.715 179.879 185.061 179.082C185.425 178.267 185.911 177.574 186.517 177.002C187.124 176.43 187.843 175.988 188.675 175.676C189.507 175.364 190.391 175.208 191.327 175.208C192.263 175.208 193.147 175.364 193.979 175.676C194.811 175.988 195.531 176.43 196.137 177.002C196.744 177.574 197.221 178.267 197.567 179.082C197.931 179.879 198.113 180.772 198.113 181.76C198.113 182.748 197.931 183.649 197.567 184.464C197.221 185.261 196.744 185.946 196.137 186.518C195.531 187.09 194.811 187.532 193.979 187.844C193.147 188.156 192.263 188.312 191.327 188.312C190.391 188.312 189.507 188.156 188.675 187.844C187.843 187.532 187.124 187.09 186.517 186.518C185.911 185.946 185.425 185.261 185.061 184.464C184.715 183.649 184.541 182.748 184.541 181.76ZM187.661 181.76C187.661 182.245 187.739 182.713 187.895 183.164C188.069 183.615 188.311 184.013 188.623 184.36C188.953 184.707 189.343 184.984 189.793 185.192C190.244 185.4 190.755 185.504 191.327 185.504C191.899 185.504 192.411 185.4 192.861 185.192C193.312 184.984 193.693 184.707 194.005 184.36C194.335 184.013 194.577 183.615 194.733 183.164C194.907 182.713 194.993 182.245 194.993 181.76C194.993 181.275 194.907 180.807 194.733 180.356C194.577 179.905 194.335 179.507 194.005 179.16C193.693 178.813 193.312 178.536 192.861 178.328C192.411 178.12 191.899 178.016 191.327 178.016C190.755 178.016 190.244 178.12 189.793 178.328C189.343 178.536 188.953 178.813 188.623 179.16C188.311 179.507 188.069 179.905 187.895 180.356C187.739 180.807 187.661 181.275 187.661 181.76ZM207.038 175.52H210.47L213.954 184.178H214.006L217.126 175.52H220.376L214.474 190.678C214.249 191.267 213.997 191.779 213.72 192.212C213.46 192.663 213.148 193.035 212.784 193.33C212.42 193.642 211.987 193.867 211.484 194.006C210.999 194.162 210.409 194.24 209.716 194.24C208.901 194.24 208.104 194.136 207.324 193.928L207.714 191.12C207.957 191.207 208.208 191.276 208.468 191.328C208.745 191.397 209.023 191.432 209.3 191.432C209.681 191.432 210.002 191.397 210.262 191.328C210.522 191.259 210.739 191.146 210.912 190.99C211.103 190.851 211.259 190.661 211.38 190.418C211.501 190.193 211.631 189.915 211.77 189.586L212.368 188.104L207.038 175.52ZM221.586 181.76C221.586 180.772 221.76 179.879 222.106 179.082C222.47 178.267 222.956 177.574 223.562 177.002C224.169 176.43 224.888 175.988 225.72 175.676C226.552 175.364 227.436 175.208 228.372 175.208C229.308 175.208 230.192 175.364 231.024 175.676C231.856 175.988 232.576 176.43 233.182 177.002C233.789 177.574 234.266 178.267 234.612 179.082C234.976 179.879 235.158 180.772 235.158 181.76C235.158 182.748 234.976 183.649 234.612 184.464C234.266 185.261 233.789 185.946 233.182 186.518C232.576 187.09 231.856 187.532 231.024 187.844C230.192 188.156 229.308 188.312 228.372 188.312C227.436 188.312 226.552 188.156 225.72 187.844C224.888 187.532 224.169 187.09 223.562 186.518C222.956 185.946 222.47 185.261 222.106 184.464C221.76 183.649 221.586 182.748 221.586 181.76ZM224.706 181.76C224.706 182.245 224.784 182.713 224.94 183.164C225.114 183.615 225.356 184.013 225.668 184.36C225.998 184.707 226.388 184.984 226.838 185.192C227.289 185.4 227.8 185.504 228.372 185.504C228.944 185.504 229.456 185.4 229.906 185.192C230.357 184.984 230.738 184.707 231.05 184.36C231.38 184.013 231.622 183.615 231.778 183.164C231.952 182.713 232.038 182.245 232.038 181.76C232.038 181.275 231.952 180.807 231.778 180.356C231.622 179.905 231.38 179.507 231.05 179.16C230.738 178.813 230.357 178.536 229.906 178.328C229.456 178.12 228.944 178.016 228.372 178.016C227.8 178.016 227.289 178.12 226.838 178.328C226.388 178.536 225.998 178.813 225.668 179.16C225.356 179.507 225.114 179.905 224.94 180.356C224.784 180.807 224.706 181.275 224.706 181.76ZM249.468 188H246.504V185.998H246.452C246.157 186.622 245.706 187.168 245.1 187.636C244.493 188.087 243.67 188.312 242.63 188.312C241.798 188.312 241.087 188.182 240.498 187.922C239.926 187.645 239.458 187.281 239.094 186.83C238.73 186.362 238.47 185.833 238.314 185.244C238.158 184.655 238.08 184.039 238.08 183.398V175.52H241.2V181.838C241.2 182.185 241.217 182.575 241.252 183.008C241.286 183.424 241.373 183.823 241.512 184.204C241.668 184.568 241.893 184.88 242.188 185.14C242.5 185.383 242.933 185.504 243.488 185.504C244.008 185.504 244.441 185.417 244.788 185.244C245.152 185.071 245.446 184.837 245.672 184.542C245.914 184.247 246.088 183.909 246.192 183.528C246.296 183.147 246.348 182.748 246.348 182.332V175.52H249.468V188ZM259.247 178.172V175.52H261.821V171.906H264.941V175.52H268.373V178.172H264.941V183.632C264.941 184.256 265.053 184.75 265.279 185.114C265.521 185.478 265.989 185.66 266.683 185.66C266.96 185.66 267.263 185.634 267.593 185.582C267.922 185.513 268.182 185.409 268.373 185.27V187.896C268.043 188.052 267.636 188.156 267.151 188.208C266.683 188.277 266.267 188.312 265.903 188.312C265.071 188.312 264.386 188.217 263.849 188.026C263.329 187.853 262.913 187.584 262.601 187.22C262.306 186.839 262.098 186.371 261.977 185.816C261.873 185.261 261.821 184.62 261.821 183.892V178.172H259.247ZM270.184 181.76C270.184 180.772 270.357 179.879 270.704 179.082C271.068 178.267 271.553 177.574 272.16 177.002C272.767 176.43 273.486 175.988 274.318 175.676C275.15 175.364 276.034 175.208 276.97 175.208C277.906 175.208 278.79 175.364 279.622 175.676C280.454 175.988 281.173 176.43 281.78 177.002C282.387 177.574 282.863 178.267 283.21 179.082C283.574 179.879 283.756 180.772 283.756 181.76C283.756 182.748 283.574 183.649 283.21 184.464C282.863 185.261 282.387 185.946 281.78 186.518C281.173 187.09 280.454 187.532 279.622 187.844C278.79 188.156 277.906 188.312 276.97 188.312C276.034 188.312 275.15 188.156 274.318 187.844C273.486 187.532 272.767 187.09 272.16 186.518C271.553 185.946 271.068 185.261 270.704 184.464C270.357 183.649 270.184 182.748 270.184 181.76ZM273.304 181.76C273.304 182.245 273.382 182.713 273.538 183.164C273.711 183.615 273.954 184.013 274.266 184.36C274.595 184.707 274.985 184.984 275.436 185.192C275.887 185.4 276.398 185.504 276.97 185.504C277.542 185.504 278.053 185.4 278.504 185.192C278.955 184.984 279.336 184.707 279.648 184.36C279.977 184.013 280.22 183.615 280.376 183.164C280.549 182.713 280.636 182.245 280.636 181.76C280.636 181.275 280.549 180.807 280.376 180.356C280.22 179.905 279.977 179.507 279.648 179.16C279.336 178.813 278.955 178.536 278.504 178.328C278.053 178.12 277.542 178.016 276.97 178.016C276.398 178.016 275.887 178.12 275.436 178.328C274.985 178.536 274.595 178.813 274.266 179.16C273.954 179.507 273.711 179.905 273.538 180.356C273.382 180.807 273.304 181.275 273.304 181.76ZM296.557 186.128H296.505C296.055 186.891 295.448 187.445 294.685 187.792C293.923 188.139 293.099 188.312 292.215 188.312C291.245 188.312 290.378 188.147 289.615 187.818C288.87 187.471 288.229 187.003 287.691 186.414C287.154 185.825 286.747 185.131 286.469 184.334C286.192 183.537 286.053 182.679 286.053 181.76C286.053 180.841 286.201 179.983 286.495 179.186C286.79 178.389 287.197 177.695 287.717 177.106C288.255 176.517 288.896 176.057 289.641 175.728C290.387 175.381 291.201 175.208 292.085 175.208C292.675 175.208 293.195 175.269 293.645 175.39C294.096 175.511 294.495 175.667 294.841 175.858C295.188 176.049 295.483 176.257 295.725 176.482C295.968 176.69 296.167 176.898 296.323 177.106H296.401V168.344H299.521V188H296.557V186.128ZM289.173 181.76C289.173 182.245 289.251 182.713 289.407 183.164C289.581 183.615 289.823 184.013 290.135 184.36C290.465 184.707 290.855 184.984 291.305 185.192C291.756 185.4 292.267 185.504 292.839 185.504C293.411 185.504 293.923 185.4 294.373 185.192C294.824 184.984 295.205 184.707 295.517 184.36C295.847 184.013 296.089 183.615 296.245 183.164C296.419 182.713 296.505 182.245 296.505 181.76C296.505 181.275 296.419 180.807 296.245 180.356C296.089 179.905 295.847 179.507 295.517 179.16C295.205 178.813 294.824 178.536 294.373 178.328C293.923 178.12 293.411 178.016 292.839 178.016C292.267 178.016 291.756 178.12 291.305 178.328C290.855 178.536 290.465 178.813 290.135 179.16C289.823 179.507 289.581 179.905 289.407 180.356C289.251 180.807 289.173 181.275 289.173 181.76ZM310.854 186.284H310.776C310.325 186.995 309.753 187.515 309.06 187.844C308.367 188.156 307.604 188.312 306.772 188.312C306.2 188.312 305.637 188.234 305.082 188.078C304.545 187.922 304.059 187.688 303.626 187.376C303.21 187.064 302.872 186.674 302.612 186.206C302.352 185.738 302.222 185.192 302.222 184.568C302.222 183.892 302.343 183.32 302.586 182.852C302.829 182.367 303.149 181.968 303.548 181.656C303.964 181.327 304.441 181.067 304.978 180.876C305.515 180.685 306.07 180.547 306.642 180.46C307.231 180.356 307.821 180.295 308.41 180.278C308.999 180.243 309.554 180.226 310.074 180.226H310.854V179.888C310.854 179.108 310.585 178.527 310.048 178.146C309.511 177.747 308.826 177.548 307.994 177.548C307.335 177.548 306.72 177.669 306.148 177.912C305.576 178.137 305.082 178.449 304.666 178.848L303.028 177.21C303.721 176.499 304.527 175.988 305.446 175.676C306.382 175.364 307.344 175.208 308.332 175.208C309.216 175.208 309.961 175.312 310.568 175.52C311.175 175.711 311.677 175.962 312.076 176.274C312.475 176.586 312.778 176.95 312.986 177.366C313.211 177.765 313.367 178.172 313.454 178.588C313.558 179.004 313.619 179.411 313.636 179.81C313.653 180.191 313.662 180.529 313.662 180.824V188H310.854V186.284ZM310.672 182.41H310.022C309.589 182.41 309.103 182.427 308.566 182.462C308.029 182.497 307.517 182.583 307.032 182.722C306.564 182.843 306.165 183.034 305.836 183.294C305.507 183.537 305.342 183.883 305.342 184.334C305.342 184.629 305.403 184.88 305.524 185.088C305.663 185.279 305.836 185.443 306.044 185.582C306.252 185.721 306.486 185.825 306.746 185.894C307.006 185.946 307.266 185.972 307.526 185.972C308.601 185.972 309.389 185.721 309.892 185.218C310.412 184.698 310.672 183.996 310.672 183.112V182.41ZM315.329 175.52H318.761L322.245 184.178H322.297L325.417 175.52H328.667L322.765 190.678C322.54 191.267 322.288 191.779 322.011 192.212C321.751 192.663 321.439 193.035 321.075 193.33C320.711 193.642 320.278 193.867 319.775 194.006C319.29 194.162 318.7 194.24 318.007 194.24C317.192 194.24 316.395 194.136 315.615 193.928L316.005 191.12C316.248 191.207 316.499 191.276 316.759 191.328C317.036 191.397 317.314 191.432 317.591 191.432C317.972 191.432 318.293 191.397 318.553 191.328C318.813 191.259 319.03 191.146 319.203 190.99C319.394 190.851 319.55 190.661 319.671 190.418C319.792 190.193 319.922 189.915 320.061 189.586L320.659 188.104L315.329 175.52ZM334.193 182.566V181.136C334.193 180.755 334.211 180.434 334.245 180.174C334.297 179.897 334.375 179.654 334.479 179.446C334.601 179.221 334.748 179.013 334.921 178.822C335.112 178.614 335.337 178.371 335.597 178.094L337.599 176.066C338.033 175.633 338.249 175.069 338.249 174.376C338.249 173.7 338.024 173.154 337.573 172.738C337.14 172.305 336.585 172.088 335.909 172.088C335.181 172.088 334.583 172.339 334.115 172.842C333.647 173.327 333.379 173.925 333.309 174.636L329.981 174.376C330.085 173.544 330.302 172.807 330.631 172.166C330.961 171.507 331.385 170.953 331.905 170.502C332.443 170.051 333.058 169.713 333.751 169.488C334.445 169.245 335.207 169.124 336.039 169.124C336.819 169.124 337.539 169.237 338.197 169.462C338.873 169.687 339.454 170.017 339.939 170.45C340.442 170.866 340.832 171.395 341.109 172.036C341.387 172.66 341.525 173.379 341.525 174.194C341.525 174.766 341.447 175.269 341.291 175.702C341.135 176.135 340.927 176.534 340.667 176.898C340.407 177.262 340.104 177.609 339.757 177.938C339.428 178.267 339.073 178.614 338.691 178.978C338.449 179.203 338.241 179.403 338.067 179.576C337.894 179.749 337.747 179.931 337.625 180.122C337.521 180.295 337.443 180.503 337.391 180.746C337.339 180.971 337.313 181.249 337.313 181.578V182.566H334.193ZM333.673 186.18C333.673 185.625 333.873 185.149 334.271 184.75C334.687 184.351 335.181 184.152 335.753 184.152C336.308 184.152 336.793 184.343 337.209 184.724C337.625 185.105 337.833 185.573 337.833 186.128C337.833 186.683 337.625 187.159 337.209 187.558C336.811 187.957 336.325 188.156 335.753 188.156C335.476 188.156 335.207 188.104 334.947 188C334.705 187.896 334.488 187.757 334.297 187.584C334.107 187.411 333.951 187.203 333.829 186.96C333.725 186.717 333.673 186.457 333.673 186.18Z" fill="white"/>
<path d="M148.898 89.6093C142.349 89.6089 136.063 87.0301 131.401 82.4309C126.739 77.8317 124.075 71.5819 123.986 65.0336L123.743 47.4568C123.653 40.8485 126.192 34.4751 130.8 29.7382C135.409 25.0013 141.71 22.2888 148.319 22.1972L190.928 21.6143H191.277C197.825 21.6157 204.11 24.1942 208.771 28.7924C213.433 33.3905 216.098 39.6388 216.189 46.186L216.432 63.759C216.626 77.4983 205.596 88.8243 191.856 89.0186L149.247 89.6015L148.898 89.6093Z" fill="#FFEE00"/>
<path d="M191.277 23.1568C197.419 23.1583 203.314 25.5774 207.686 29.891C212.058 34.2046 214.556 40.0659 214.641 46.2072L214.882 63.7781C214.924 66.8472 214.362 69.8947 213.227 72.7466C212.092 75.5984 210.406 78.1987 208.266 80.3989C206.126 82.5992 203.574 84.3562 200.754 85.5698C197.935 86.7833 194.904 87.4296 191.835 87.4717L149.224 88.0662H148.896C142.753 88.0642 136.859 85.6443 132.487 81.33C128.115 77.0156 125.618 71.1536 125.534 65.012L125.293 47.4371C125.209 41.2401 127.589 35.2633 131.911 30.8214C136.233 26.3795 142.143 23.8363 148.34 23.7514L190.949 23.1684H191.277M191.277 20.0712H190.904L148.297 20.6541C141.279 20.7504 134.586 23.6307 129.691 28.6614C124.796 33.6922 122.1 40.4614 122.196 47.4799L122.437 65.0528C122.533 72.0081 125.362 78.6462 130.314 83.5314C135.266 88.4167 141.942 91.1562 148.898 91.1576H149.269L191.876 90.5747C195.352 90.5271 198.785 89.7951 201.978 88.4205C205.172 87.0459 208.063 85.0556 210.487 82.5634C212.911 80.0712 214.82 77.1259 216.106 73.8957C217.391 70.6654 218.028 67.2136 217.979 63.7373L217.738 46.1625C217.642 39.2079 214.812 32.5705 209.861 27.6857C204.91 22.801 198.235 20.0615 191.279 20.0596L191.277 20.0712Z" fill="#040B11"/>
<path d="M187.739 85.736L153.273 86.2101C150.813 86.244 148.37 85.793 146.084 84.8828C143.798 83.9726 141.714 82.6211 139.951 80.9053C138.187 79.1896 136.779 77.1433 135.806 74.8833C134.834 72.6233 134.316 70.1938 134.282 67.7336L134.154 58.4634C134.12 56.0032 134.571 53.5604 135.481 51.2745C136.391 48.9886 137.743 46.9044 139.458 45.1409C141.174 43.3773 143.22 41.969 145.48 40.9963C147.74 40.0237 150.17 39.5057 152.63 39.472L187.096 38.9979C189.556 38.9637 191.999 39.4146 194.285 40.3246C196.571 41.2347 198.656 42.5862 200.42 44.302C202.183 46.0177 203.592 48.0641 204.565 50.3242C205.537 52.5844 206.055 55.014 206.089 57.4743L206.215 66.7427C206.284 71.7115 204.376 76.504 200.911 80.0659C197.446 83.6278 192.708 85.6674 187.739 85.736Z" fill="#040B11"/>
<path d="M170.675 136.216C161.617 136.216 154.229 132.956 148.719 126.52C144.757 121.896 141.86 115.762 140.111 108.289C139.741 106.696 139.731 105.041 140.085 103.445C140.438 101.848 141.144 100.352 142.152 99.0641C143.16 97.7767 144.444 96.7315 145.908 96.0054C147.373 95.2793 148.982 94.8907 150.617 94.8682L190.644 94.3164H190.799C192.422 94.3167 194.025 94.6779 195.491 95.3738C196.957 96.0698 198.25 97.0831 199.276 98.3404C200.302 99.5977 201.036 101.067 201.424 102.643C201.812 104.219 201.844 105.861 201.519 107.451C199.965 115.053 197.192 121.313 193.296 126.062C187.869 132.668 180.439 136.096 171.212 136.222C171.023 136.216 170.848 136.216 170.675 136.216Z" fill="#FFEE00"/>
<path d="M190.788 95.854C192.18 95.8545 193.555 96.1646 194.813 96.7617C196.071 97.3588 197.181 98.2281 198.061 99.3067C198.942 100.385 199.572 101.646 199.905 102.998C200.239 104.35 200.268 105.759 199.99 107.124C197.658 118.522 190.858 134.389 171.177 134.659H170.675C151.373 134.659 144.25 119.157 141.617 107.926C141.298 106.558 141.289 105.137 141.592 103.765C141.894 102.394 142.501 101.107 143.367 100.001C144.232 98.8952 145.335 97.9973 146.593 97.3737C147.852 96.7502 149.234 96.4168 150.639 96.3981L190.665 95.8462H190.797M190.797 92.749H190.611L150.584 93.3125C148.717 93.3375 146.879 93.7811 145.205 94.6105C143.532 95.4399 142.066 96.6341 140.915 98.1051C139.765 99.576 138.959 101.286 138.557 103.11C138.154 104.934 138.166 106.825 138.592 108.643C140.397 116.361 143.407 122.717 147.53 127.532C150.141 130.619 153.375 133.12 157.02 134.87C161.061 136.792 165.652 137.767 170.664 137.767H171.208C176.31 137.698 180.956 136.642 185.015 134.633C188.672 132.807 191.895 130.219 194.468 127.042C198.525 122.097 201.401 115.611 203.017 107.761C203.389 105.945 203.352 104.07 202.909 102.271C202.466 100.471 201.628 98.7928 200.456 97.3572C199.284 95.9216 197.808 94.7647 196.134 93.9703C194.459 93.176 192.629 92.7641 190.776 92.7646L190.797 92.749Z" fill="#040B11"/>
<path d="M139.448 50.6606L121.135 50.9131L121.387 69.2265L139.7 68.974L139.448 50.6606Z" fill="#040B11"/>
<path d="M216.586 49.5971L198.273 49.8496L198.525 68.163L216.839 67.9105L216.586 49.5971Z" fill="#040B11"/>
<path d="M121.244 69.1436C118.417 69.1323 115.707 68.014 113.694 66.0284C111.682 64.0427 110.527 61.3477 110.478 58.521L110.429 54.971C110.397 52.5349 111.334 50.1857 113.032 48.4393C114.731 46.6929 117.053 45.6919 119.49 45.656L122.414 45.6152L122.738 69.1261L121.396 69.1455L121.244 69.1436Z" fill="#FFEE00"/>
<path d="M121.081 46.9771L121.367 67.8007H121.244C118.766 67.8005 116.388 66.8246 114.624 65.0842C112.86 63.3439 111.852 60.9791 111.818 58.5013L111.77 54.9514C111.742 52.8731 112.54 50.8686 113.988 49.3779C115.436 47.8872 117.417 47.0321 119.495 47.0004L121.077 46.9771M123.721 44.2568L121.038 44.2937L119.455 44.3171C116.663 44.3585 114.002 45.5055 112.056 47.5065C110.109 49.5074 109.036 52.1988 109.071 54.9902L109.119 58.5402C109.164 61.7252 110.462 64.7644 112.731 66.9998C115 69.2352 118.059 70.487 121.244 70.4841H121.413L124.096 70.4491L124.06 67.7658L123.77 46.9382L123.733 44.2549L123.721 44.2568Z" fill="#040B11"/>
<path d="M217.608 43.198L220.522 43.1572H220.652C223.064 43.167 225.375 44.1209 227.092 45.8145C228.808 47.5081 229.793 49.8067 229.835 52.2177L229.886 55.7676C229.927 58.6237 228.832 61.3791 226.842 63.428C224.851 65.4769 222.129 66.6514 219.273 66.6934L217.932 66.7128L217.608 43.198Z" fill="#FFEE00"/>
<path d="M220.66 44.4998C222.721 44.5011 224.699 45.3134 226.166 46.7612C227.633 48.209 228.472 50.176 228.5 52.237L228.549 55.7869C228.583 58.2874 227.623 60.6991 225.88 62.4918C224.136 64.2845 221.752 65.3114 219.251 65.3467L218.964 44.5211L220.548 44.4998H220.658M220.658 41.8164H220.511L218.927 41.8378L216.244 41.8747L216.281 44.56L216.568 65.3836L216.605 68.067L219.288 68.0301C220.879 68.0085 222.45 67.6738 223.911 67.0451C225.372 66.4163 226.696 65.5059 227.805 64.3657C228.914 63.2255 229.788 61.8779 230.376 60.4C230.965 58.922 231.256 57.3426 231.234 55.7519L231.186 52.202C231.145 49.4364 230.019 46.7977 228.05 44.8556C226.08 42.9135 223.426 41.824 220.66 41.8222L220.658 41.8164Z" fill="#040B11"/>
<path opacity="0.34" d="M111.809 58.5016C111.809 58.5016 114.647 62.0574 117.972 62.4052L117.76 47.0201L123.44 45.627L122.799 70.5912C122.799 70.5912 111.964 70.0083 111.884 64.2569C111.805 58.5055 111.809 58.5016 111.809 58.5016Z" fill="#040B11"/>
<path opacity="0.34" d="M218.968 44.5223L220.551 44.501L220.79 61.7766C220.79 61.7766 227.609 61.8718 228.343 50.7634C229.078 39.655 230.71 58.147 230.71 58.147C230.71 58.147 222.994 68.6628 218.274 67.732C213.554 66.8013 218.968 44.5223 218.968 44.5223Z" fill="#040B11"/>
<path d="M179.001 124.697L161.708 124.936C160.829 124.948 159.955 124.787 159.138 124.462C158.321 124.136 157.576 123.653 156.945 123.039C156.315 122.426 155.811 121.694 155.464 120.886C155.116 120.078 154.931 119.21 154.919 118.33L154.781 108.288C154.768 107.408 154.928 106.533 155.253 105.715C155.578 104.896 156.061 104.15 156.675 103.518C157.288 102.887 158.02 102.382 158.829 102.034C159.638 101.685 160.507 101.5 161.388 101.488L178.681 101.249C179.56 101.237 180.434 101.398 181.251 101.723C182.068 102.049 182.813 102.532 183.444 103.146C184.074 103.759 184.577 104.491 184.925 105.299C185.273 106.107 185.458 106.975 185.47 107.855L185.608 117.899C185.621 118.779 185.461 119.654 185.136 120.472C184.811 121.291 184.328 122.037 183.715 122.668C183.101 123.3 182.369 123.804 181.56 124.152C180.751 124.501 179.882 124.686 179.001 124.697Z" fill="#040B11"/>
<path d="M166.83 111.439L163.768 111.48L163.677 104.808L166.663 104.767C167.976 104.748 168.8 105.414 168.8 106.463V106.483C168.815 106.778 168.745 107.072 168.599 107.329C168.453 107.586 168.236 107.796 167.975 107.934C168.723 108.22 169.189 108.661 169.203 109.557V109.576C169.238 110.8 168.282 111.418 166.83 111.439ZM167.413 106.729C167.413 106.292 167.073 106.049 166.475 106.057L165.077 106.075L165.097 107.487L166.403 107.47C167.026 107.47 167.419 107.244 167.413 106.751V106.729ZM167.802 109.393C167.802 108.947 167.471 108.673 166.745 108.684L165.109 108.706L165.13 110.173L166.813 110.149C167.436 110.149 167.809 109.906 167.804 109.413L167.802 109.393Z" fill="#EDEDED"/>
<path d="M172.074 111.365L171.981 104.693L176.839 104.625L176.856 105.931L173.409 105.977L173.429 107.337L176.462 107.295L176.479 108.6L173.446 108.643L173.464 110.044L176.961 109.996L176.977 111.301L172.074 111.365Z" fill="#FFEE00"/>
<path d="M166.863 121.523C164.932 121.548 163.581 120.163 163.56 118.256V118.239C163.535 116.409 164.887 114.893 166.768 114.866C167.885 114.85 168.563 115.153 169.218 115.715L168.373 116.803C167.887 116.395 167.459 116.162 166.742 116.172C165.748 116.185 164.972 117.106 164.994 118.2V118.22C165.009 119.397 165.802 120.25 166.9 120.234C167.359 120.241 167.808 120.1 168.18 119.832L168.169 118.911L166.795 118.931L166.777 117.708L169.472 117.67L169.511 120.466C168.79 121.134 167.846 121.51 166.863 121.523Z" fill="#FFEE00"/>
<path d="M175.082 121.407C174.647 121.42 174.213 121.346 173.807 121.187C173.401 121.029 173.031 120.79 172.72 120.485C172.408 120.18 172.162 119.816 171.995 119.413C171.828 119.01 171.744 118.578 171.748 118.143V118.125C171.715 117.677 171.774 117.226 171.921 116.801C172.068 116.376 172.3 115.986 172.604 115.654C172.907 115.322 173.275 115.056 173.685 114.871C174.095 114.686 174.538 114.587 174.988 114.58C175.437 114.572 175.884 114.657 176.299 114.828C176.715 114.999 177.092 115.253 177.406 115.575C177.72 115.897 177.965 116.279 178.126 116.699C178.287 117.119 178.361 117.567 178.343 118.016V118.036C178.357 118.473 178.283 118.908 178.125 119.317C177.968 119.725 177.73 120.097 177.426 120.411C177.122 120.726 176.758 120.976 176.355 121.147C175.952 121.318 175.52 121.406 175.082 121.407ZM176.914 118.053C176.899 116.95 176.106 116.042 175.008 116.058C173.91 116.073 173.158 116.983 173.174 118.086V118.106C173.19 119.209 173.98 120.117 175.08 120.101C176.18 120.086 176.928 119.176 176.914 118.073V118.053Z" fill="#EDEDED"/>
<path opacity="0.34" d="M174.289 94.0998C174.289 94.0998 189.445 96.2916 190.893 103.426C192.435 110.973 189.169 125.591 175.193 128.663C155.129 133.072 143.276 116.493 143.276 116.493C143.276 116.493 146.591 133.934 166.647 135.906C186.703 137.879 193.901 126.127 193.901 126.127C193.901 126.127 203.894 109.561 201.117 100.949C198.34 92.3375 174.289 94.0998 174.289 94.0998Z" fill="#040B11"/>
<path opacity="0.34" d="M163.91 21.6453C163.91 21.6453 186.991 21.791 197.225 30.0373C207.459 38.2836 203.831 69.4209 202.918 75.8077C202.005 82.1945 159.462 89.6442 142.878 88.148C142.878 88.148 182.747 90.7906 194.581 89.1817C206.414 87.5729 216.99 78.8525 216.842 67.9151C216.694 56.9776 216.003 38.5925 216.003 38.5925C216.003 38.5925 207.842 21.9095 194.812 21.2217C181.782 20.5338 163.91 21.6453 163.91 21.6453Z" fill="#040B11"/>
<path d="M177.336 93.9718L163.532 94.1621L163.644 102.299L177.448 102.108L177.336 93.9718Z" fill="#040B11"/>
<path d="M131.433 41.3059C130.629 42.4076 128.917 41.5313 129.337 40.2333C130.17 37.6588 131.641 34.7734 134.233 32.432C140.48 26.7874 149.051 26.667 149.051 26.667L163.976 26.4727C163.976 26.4727 142.204 26.5815 131.433 41.3059Z" fill="#EDEDED"/>
<path d="M151.439 98.3975C151.439 98.3975 146.063 98.6384 144.427 102.563C142.791 106.488 147.765 116.435 147.765 116.435C147.765 116.435 143.236 105.293 151.439 98.3975Z" fill="#EDEDED"/>
<path d="M116.387 49.0771C116.387 49.0771 112.842 50.4004 113.043 55.1939C113.043 55.1939 113.888 52.5805 116.427 52.1122L116.387 49.0771Z" fill="#EDEDED"/>
<path d="M222.003 48.2731C221.999 48.0093 222.071 47.75 222.21 47.5258C222.349 47.3016 222.549 47.1218 222.787 47.0078C223.025 46.8938 223.29 46.8502 223.552 46.8823C223.814 46.9144 224.061 47.0208 224.265 47.1889C224.827 47.6695 225.336 48.2096 225.782 48.7997C227.879 51.5199 225.248 57.5434 223.013 59.2921C223.013 59.2921 224.816 53.1113 222.819 50.5601C222.306 49.9048 222.023 49.0992 222.013 48.2673L222.003 48.2731Z" fill="#EDEDED"/>
<path d="M140.123 52.2678C139.857 52.2715 139.595 52.2053 139.364 52.076C139.132 51.9466 138.938 51.7585 138.801 51.5307C138.665 51.3028 138.591 51.0431 138.587 50.7776C138.582 50.5121 138.648 50.2501 138.776 50.0178C139.931 47.9588 141.489 46.154 143.358 44.7113C147.685 41.379 154.342 41.9133 154.342 41.9133C154.342 41.9133 144.368 43.8 141.984 50.933C141.85 51.3205 141.599 51.6568 141.265 51.8959C140.932 52.1349 140.533 52.2648 140.123 52.2678Z" fill="#EDEDED"/>
<path d="M201.012 72.6633C201.278 72.659 201.54 72.7248 201.772 72.8541C202.005 72.9833 202.199 73.1714 202.335 73.3995C202.472 73.6275 202.546 73.8875 202.55 74.1532C202.554 74.419 202.488 74.6811 202.359 74.9133C201.205 76.9722 199.647 78.7771 197.779 80.2198C193.452 83.5502 186.793 83.0178 186.793 83.0178C186.793 83.0178 196.767 81.1311 199.151 73.9982C199.285 73.6108 199.536 73.2746 199.87 73.0356C200.203 72.7966 200.602 72.6666 201.012 72.6633Z" fill="#EDEDED"/>
<path d="M218.94 47.0431C218.94 23.2544 197.141 3.9677 170.252 3.9677C143.362 3.9677 121.563 23.2524 121.563 47.0431H117.08C117.08 21.0626 140.886 0 170.252 0C199.617 0 223.425 21.0626 223.425 47.0431H218.94Z" fill="#FFEE00"/>
<path d="M227.917 40.4053C229.648 41.111 231.261 42.0747 232.703 43.2635C240.813 49.9806 241.202 62.0897 233.57 70.3107C232.221 71.7622 230.683 73.0249 228.996 74.0647L227.917 40.4053Z" fill="#00FFD2"/>
<path d="M228.992 75.2428C228.686 75.243 228.393 75.1243 228.173 74.9118C227.953 74.6993 227.825 74.4097 227.815 74.1042L226.736 40.4428C226.73 40.2466 226.774 40.0519 226.862 39.8766C226.951 39.7013 227.081 39.5508 227.243 39.4389C227.404 39.327 227.591 39.2571 227.786 39.2356C227.981 39.2141 228.179 39.2417 228.361 39.3159C230.2 40.0668 231.916 41.0927 233.447 42.3587C235.415 43.9749 237.029 45.9794 238.187 48.2471C239.345 50.5147 240.024 52.9968 240.18 55.5384C240.545 61.1033 238.449 66.7809 234.425 71.1119C233.005 72.6415 231.386 73.9722 229.61 75.068C229.424 75.1829 229.21 75.2435 228.992 75.2428Z" fill="#FFEE00"/>
<path d="M227.918 40.4058C229.648 41.1115 231.261 42.0752 232.703 43.264C240.814 49.9811 241.202 62.0902 233.57 70.3112C232.221 71.7627 230.683 73.0254 228.996 74.0652L227.918 40.4058ZM227.918 38.0508C227.602 38.0514 227.29 38.1153 227 38.2385C226.71 38.3617 226.448 38.5419 226.228 38.7683C226.009 38.9947 225.837 39.2628 225.723 39.5568C225.609 39.8507 225.555 40.1645 225.565 40.4796L226.643 74.1429C226.656 74.5555 226.778 74.9573 226.996 75.308C227.213 75.6588 227.519 75.9462 227.883 76.1414C228.247 76.3366 228.655 76.4328 229.068 76.4204C229.48 76.4079 229.882 76.2872 230.234 76.0704C232.101 74.9182 233.806 73.5203 235.301 71.9142C237.422 69.6496 239.063 66.9794 240.126 64.0643C241.131 61.3133 241.553 58.3834 241.365 55.4605C241.199 52.7589 240.478 50.1207 239.247 47.7103C238.015 45.2999 236.301 43.1692 234.209 41.4511C232.585 40.1104 230.767 39.0235 228.817 38.2276C228.534 38.1107 228.23 38.0506 227.923 38.0508H227.918Z" fill="#040B11"/>
<path d="M221.7 80.1655C220.075 80.1655 218.661 79.6253 217.714 78.646C217.307 78.2212 216.99 77.717 216.786 77.1648C216.581 76.6126 216.491 76.0242 216.523 75.4361C216.813 64.0383 216.447 52.6332 215.427 41.2773C215.152 38.5474 217.147 36.2604 220.285 35.728C220.67 35.6625 221.06 35.6293 221.451 35.6289C224.115 35.6289 226.068 37.2708 226.309 39.7093C227.369 51.5095 227.749 63.361 227.447 75.2049C227.346 78.0184 224.997 80.0994 221.857 80.1674L221.7 80.1655Z" fill="#FFEE00"/>
<path d="M221.443 36.797C223.373 36.797 224.941 37.8482 225.135 39.8262C226.186 51.5776 226.564 63.3796 226.266 75.1742C226.182 77.5058 224.191 78.9359 221.828 78.9884H221.7C219.401 78.9884 217.619 77.6865 217.707 75.4695C217.995 64.0231 217.629 52.5695 216.609 41.165C216.384 38.9344 218.132 37.2789 220.495 36.8806C220.816 36.8258 221.141 36.7979 221.467 36.797M221.467 34.444C221.011 34.4446 220.556 34.4836 220.106 34.5606C218.5 34.8049 217.014 35.5605 215.871 36.7154C215.28 37.3294 214.831 38.0646 214.553 38.87C214.276 39.6753 214.177 40.5314 214.264 41.3787C215.279 52.6868 215.643 64.0439 215.354 75.3937C215.318 76.1381 215.434 76.8819 215.694 77.5802C215.954 78.2786 216.354 78.9169 216.867 79.4566C218.033 80.6691 219.755 81.3375 221.7 81.3375H221.894C225.677 81.2539 228.512 78.6969 228.634 75.2538V75.2422C228.937 63.3574 228.556 51.4652 227.494 39.6241C227.495 39.6158 227.495 39.6073 227.494 39.5989C227.43 38.8422 227.211 38.1068 226.85 37.4383C226.49 36.7698 225.996 36.1824 225.399 35.7128C224.262 34.8549 222.868 34.4058 221.443 34.4382L221.467 34.444Z" fill="#040B11"/>
<path d="M232.114 50.7923C232.099 52.4575 232.814 53.7632 233.712 53.7068C234.609 53.6505 235.35 52.2632 235.365 50.598C235.381 48.9328 234.666 47.627 233.768 47.6834C232.87 47.7397 232.13 49.1271 232.114 50.7923Z" fill="#EDEDED"/>
<path opacity="0.34" d="M237.666 47.0505C237.666 47.0505 237.567 63.0029 228.66 67.1008L226.223 71.2356C226.223 71.2356 222.007 73.8354 220.782 68.7738C219.558 63.7122 220.361 36.8573 220.361 36.8573C220.361 36.8573 217.446 35.367 216.484 41.1417C215.523 46.9164 215.21 55.1705 215.21 55.1705C215.21 55.1705 211.623 81.8019 221.709 78.9631C221.709 78.9631 225.224 80.9062 228.877 74.0433C228.889 74.0453 246.45 66.9065 237.666 47.0505Z" fill="#040B11"/>
<path d="M155.224 69.6621C156.274 69.6621 157.124 66.4581 157.124 62.5059C157.124 58.5536 156.274 55.3496 155.224 55.3496C154.175 55.3496 153.324 58.5536 153.324 62.5059C153.324 66.4581 154.175 69.6621 155.224 69.6621Z" fill="#FFEE00"/>
<path d="M183.861 69.6621C184.91 69.6621 185.761 66.4581 185.761 62.5059C185.761 58.5536 184.91 55.3496 183.861 55.3496C182.811 55.3496 181.96 58.5536 181.96 62.5059C181.96 66.4581 182.811 69.6621 183.861 69.6621Z" fill="#FFEE00"/>
<path opacity="0.34" d="M155.224 55.3496C155.224 55.3496 157.317 69.5552 153.324 68.368C149.331 67.1808 154.824 75.7516 157.569 73.078C160.315 70.4043 159.627 55.5867 155.224 55.3496Z" fill="#040B11"/>
<path opacity="0.34" d="M183.95 55.3496C183.95 55.3496 186.043 69.5552 182.05 68.368C178.057 67.1808 183.55 75.7516 186.295 73.078C189.041 70.4043 188.353 55.5867 183.95 55.3496Z" fill="#040B11"/>
<path d="M119.841 87.8731C115.877 87.8731 112.652 84.4184 112.652 80.1709V66.2295H116.927V80.1786C116.927 81.9604 118.232 83.4119 119.841 83.4119H161.584V87.8809L119.841 87.8731Z" fill="#FFEE00"/>
<path d="M115.959 67.1999V80.1775C115.959 82.4956 117.708 84.3823 119.845 84.3823H160.612V86.9082H119.841C116.414 86.9082 113.623 83.8887 113.623 80.1775V67.1999H115.955M117.898 65.2568H111.68V80.1775C111.68 84.9593 115.341 88.8513 119.841 88.8513H162.555V82.4314H119.841C118.771 82.4314 117.898 81.4172 117.898 80.1697V65.2568Z" fill="#040B11"/>
<path d="M111.484 40.4053C109.754 41.1111 108.142 42.0747 106.7 43.2635C98.5881 49.9806 98.2015 62.0897 105.834 70.3107C107.182 71.7627 108.721 73.0255 110.408 74.0647L111.484 40.4053Z" fill="#00FFD2"/>
<path d="M110.408 75.2429C110.189 75.2424 109.975 75.1819 109.788 75.068C108.012 73.9713 106.392 72.6407 104.971 71.112C100.951 66.7809 98.8545 61.1034 99.2178 55.5385C99.3738 52.9966 100.052 50.5141 101.211 48.2461C102.369 45.9781 103.983 43.9733 105.951 42.3568C107.482 41.0915 109.198 40.0662 111.037 39.316C111.219 39.2418 111.416 39.2142 111.612 39.2355C111.807 39.2569 111.993 39.3266 112.155 39.4384C112.317 39.5496 112.448 39.7001 112.536 39.8757C112.625 40.0514 112.667 40.2465 112.66 40.4429L111.583 74.1043C111.576 74.4088 111.45 74.6983 111.232 74.9111C111.015 75.1239 110.722 75.243 110.418 75.2429H110.408Z" fill="#FFEE00"/>
<path d="M111.484 40.4054L110.408 74.0765C108.721 73.0365 107.183 71.7738 105.834 70.3225C98.2015 62.0995 98.5882 49.9924 106.7 43.2753C108.141 42.0852 109.754 41.1209 111.484 40.4151M111.484 38.0601H111.412C111.111 38.0682 110.814 38.1341 110.538 38.2544C108.607 39.0475 106.807 40.127 105.198 41.4566C103.106 43.1746 101.391 45.3056 100.16 47.7164C98.9287 50.1271 98.2077 52.7659 98.0422 55.4679C97.8573 58.3886 98.2815 61.3158 99.2877 64.0639C100.35 66.9796 101.991 69.6504 104.112 71.9158C105.603 73.5209 107.302 74.9188 109.164 76.072C109.516 76.2887 109.918 76.4092 110.33 76.4216C110.743 76.4341 111.152 76.3379 111.516 76.1427C111.879 75.9475 112.185 75.6602 112.403 75.3095C112.621 74.9588 112.743 74.5571 112.757 74.1445L113.833 40.5297C113.833 40.4889 113.833 40.4501 113.833 40.4093C113.833 39.7889 113.588 39.1936 113.152 38.7529C112.715 38.3123 112.122 38.0619 111.502 38.0562C111.493 38.0542 111.485 38.0542 111.476 38.0562L111.484 38.0601Z" fill="#040B11"/>
<path d="M117.706 80.1665H117.552C114.414 80.0984 112.063 78.0174 111.962 75.2195C111.66 63.3749 112.04 51.5228 113.099 39.7219C113.344 37.2659 115.298 35.624 117.956 35.624C118.347 35.6246 118.737 35.6577 119.122 35.7231C122.254 36.2555 124.248 38.5425 123.98 41.2841C122.958 52.6379 122.588 64.041 122.874 75.4371C122.908 76.0239 122.82 76.6114 122.616 77.1627C122.412 77.714 122.096 78.2173 121.689 78.6412C120.745 79.6263 119.33 80.1665 117.706 80.1665Z" fill="#FFEE00"/>
<path d="M117.956 36.7978C118.282 36.7991 118.607 36.827 118.928 36.8814C121.279 37.2817 123.028 38.9352 122.804 41.1658C121.784 52.5703 121.417 64.0239 121.705 75.4703C121.784 77.6873 120.012 78.9892 117.712 78.9892H117.58C115.215 78.9367 113.221 77.5027 113.14 75.175C112.843 63.3804 113.221 51.5785 114.272 39.827C114.467 37.849 116.031 36.7978 117.964 36.7978M117.964 34.4448C116.546 34.4145 115.159 34.8606 114.024 35.7117C113.427 36.1813 112.933 36.7686 112.573 37.4371C112.212 38.1056 111.993 38.8411 111.929 39.5978C111.929 39.5978 111.929 39.6153 111.929 39.623C110.863 51.4645 110.478 63.3574 110.777 75.243V75.2682C110.899 78.7113 113.734 81.2684 117.517 81.3519H117.712C119.655 81.3519 121.372 80.6855 122.544 79.4711C123.058 78.9313 123.457 78.293 123.717 77.5947C123.977 76.8963 124.093 76.1525 124.058 75.4081C123.768 64.0583 124.132 52.7012 125.148 41.3931C125.234 40.5458 125.135 39.6898 124.858 38.8846C124.58 38.0793 124.131 37.3441 123.541 36.7298C122.402 35.5775 120.922 34.8221 119.32 34.575C118.871 34.4977 118.416 34.4587 117.96 34.4584L117.964 34.4448Z" fill="#040B11"/>
<path d="M107.285 50.7923C107.301 52.4575 106.586 53.7632 105.688 53.7068C104.79 53.6505 104.048 52.2632 104.033 50.598C104.017 48.9328 104.734 47.627 105.632 47.6834C106.529 47.7397 107.27 49.1271 107.285 50.7923Z" fill="#EDEDED"/>
<path opacity="0.34" d="M101.635 47.0681C101.635 47.0681 101.734 63.0186 110.641 67.1165L113.083 71.2571C113.083 71.2571 117.3 73.8569 118.524 68.7953C119.748 63.7336 118.945 36.8788 118.945 36.8788C118.945 36.8788 121.87 35.3885 122.822 41.1632C123.774 46.9379 124.096 55.192 124.096 55.192C124.096 55.192 127.683 81.8234 117.597 78.9866C117.597 78.9866 114.082 80.9296 110.431 74.0648C110.419 74.0765 92.8503 66.93 101.635 47.0681Z" fill="#040B11"/>
<path d="M154.342 92.1134C149.389 92.1134 145.361 89.1192 145.361 85.4429C145.361 81.7667 149.389 78.7725 154.342 78.7725C159.295 78.7725 163.323 81.7648 163.323 85.4429C163.323 89.1211 159.295 92.1134 154.342 92.1134Z" fill="#FFEE00"/>
<path d="M154.342 79.8424C158.712 79.8424 162.254 82.349 162.254 85.4442C162.254 88.5395 158.712 91.0461 154.342 91.0461C149.972 91.0461 146.43 88.5376 146.43 85.4442C146.43 82.3509 149.972 79.8424 154.342 79.8424ZM154.342 77.7051C151.791 77.7051 149.364 78.426 147.512 79.7375C145.466 81.187 144.292 83.2661 144.292 85.4442C144.292 87.6224 145.458 89.6995 147.512 91.149C149.364 92.4606 151.787 93.1834 154.342 93.1834C156.897 93.1834 159.32 92.4606 161.172 91.149C163.218 89.6995 164.391 87.6205 164.391 85.4442C164.391 83.268 163.226 81.187 161.172 79.7375C159.32 78.426 156.897 77.7051 154.342 77.7051Z" fill="#040B11"/>
<path opacity="0.34" d="M114.739 79.8423C114.739 79.8423 115.306 84.6843 118.362 85.7958C121.419 86.9072 145.281 85.7958 145.281 85.7958C145.281 85.7958 148.111 88.6132 154.785 88.2518C161.459 87.8904 161.453 81.0897 158.692 80.1668C158.692 80.1668 163.614 81.3326 163.175 86.1552C162.736 90.9779 154.342 92.4624 154.342 92.4624L146.016 89.4448L137.591 87.9234L118.757 87.8379C118.757 87.8379 114.904 87.5018 113.625 84.4084C112.857 82.5784 112.524 80.5948 112.654 78.6143L114.739 79.8423Z" fill="#040B11"/>
<path d="M193.467 79.654C186.084 79.654 181.743 78.6319 178.958 76.2323C176.077 73.751 175.127 70.1758 174.557 68.0404C174.449 67.6285 174.363 67.2632 174.262 66.9795C173.78 65.4581 173.407 64.0144 173.077 62.7398C172.669 61.1717 172.319 59.8252 171.911 58.9081C171.493 57.9521 170.903 57.3536 170.37 57.3536C169.838 57.3536 169.245 57.9365 168.827 58.9081C168.439 59.8155 168.079 61.1717 167.673 62.7398C167.341 64.0144 166.968 65.46 166.486 66.9795C166.395 67.2709 166.292 67.6285 166.191 68.0404C165.621 70.1777 164.671 73.751 161.79 76.2323C159.007 78.6319 154.668 79.654 147.281 79.654C140.354 79.654 136.789 79.1857 134.57 77.9849C132.199 76.7044 131.556 74.6526 130.74 72.0547L130.563 71.4893C129.928 69.4841 129.384 67.2282 128.857 65.0481C128.146 62.0986 127.172 58.0531 126.407 57.4994C124.619 56.1878 123.986 55.6282 123.669 53.5258C123.211 50.4616 124.757 49.6028 127.775 49.0898C129.523 48.7906 138.592 47.584 147.584 47.584C152.722 47.584 156.858 47.9862 159.878 48.7809C162.112 49.3638 163.822 49.8554 165.196 50.246C167.825 50.996 169.146 51.371 170.37 51.371C171.594 51.371 172.914 50.996 175.543 50.246C176.916 49.8573 178.626 49.3677 180.861 48.7809C183.88 47.9862 188.017 47.584 193.154 47.584C202.147 47.584 211.205 48.7906 212.973 49.0898C215.991 49.6028 217.538 50.4616 217.079 53.5258C216.762 55.6282 216.129 56.1878 214.343 57.4994C213.576 58.0609 212.595 62.0986 211.891 65.0481C211.365 67.2282 210.821 69.4841 210.185 71.4893L210.008 72.0547C209.194 74.6526 208.551 76.7044 206.179 77.9849C203.958 79.1857 200.394 79.654 193.467 79.654ZM192.366 51.8684C189.394 51.8746 186.433 52.2201 183.54 52.8982C180.67 53.5841 179.071 54.3983 178.515 54.9306C177.762 55.6651 177.324 57.4177 177.319 59.7377C177.303 65.7787 179.742 71.4446 182.044 73.7063C183.598 75.2316 188.283 76.106 194.907 76.106C195.397 76.106 195.9 76.106 196.397 76.0904C199.619 76.0244 201.752 75.729 203.796 74.3553C205.262 73.3702 205.74 71.7399 206.408 69.4841C206.49 69.2043 206.575 68.9186 206.662 68.6252C209.956 57.7578 205.265 54.0116 204.98 53.7959C202.203 51.8898 197.235 51.8859 192.428 51.8801L192.366 51.8684ZM135.778 53.7901C135.494 54.0058 130.804 57.7519 134.095 68.6194C134.183 68.9128 134.268 69.2023 134.35 69.4782C135.016 71.7341 135.496 73.3643 136.961 74.3495C139.006 75.7232 141.139 76.0185 144.361 76.0846C144.858 76.0846 145.361 76.1001 145.853 76.1001C152.475 76.1001 157.163 75.2258 158.714 73.7005C161.016 71.4388 163.455 65.7728 163.439 59.7319C163.439 57.4119 162.996 55.6515 162.242 54.9248C160.933 53.6521 155.032 51.8742 148.394 51.8742H148.33C143.525 51.8801 138.555 51.8839 135.778 53.7901Z" fill="#4D6277"/>
<path d="M193.164 48.5554C201.869 48.5554 210.891 49.7212 212.812 50.0476C215.707 50.5392 216.446 51.196 216.115 53.3819C215.849 55.152 215.406 55.5193 213.766 56.7142C212.126 57.9092 211.013 65.6775 209.264 71.1958C207.515 76.714 207.405 78.6823 193.471 78.6823C186.156 78.6823 182.11 77.6622 179.598 75.4977C176.427 72.7619 175.789 68.5901 175.187 66.6937C174.113 63.2895 173.576 60.272 172.811 58.5232C172.189 57.1029 171.283 56.3859 170.38 56.3859C169.476 56.3859 168.569 57.0951 167.947 58.5232C167.182 60.272 166.645 63.2895 165.571 66.6937C164.97 68.596 164.339 72.7677 161.164 75.5035C158.652 77.6681 154.606 78.6882 147.291 78.6882C133.357 78.6882 133.246 76.7218 131.498 71.2016C129.749 65.6814 128.63 57.9228 126.99 56.7201C125.35 55.5173 124.907 55.1656 124.641 53.3877C124.312 51.2018 125.051 50.5451 127.944 50.0535C129.865 49.727 138.887 48.5612 147.592 48.5612C152.012 48.5612 156.353 48.8624 159.639 49.727C166.292 51.4758 168.334 52.3502 170.378 52.3502C172.422 52.3502 174.458 51.4758 181.115 49.727C184.403 48.8643 188.74 48.5612 193.162 48.5612M194.911 77.0774C195.424 77.0774 195.929 77.0774 196.421 77.0618C199.53 76.9977 202.013 76.7276 204.342 75.1615C206.305 73.8403 206.762 71.6641 207.597 68.9069C211.194 57.0329 205.547 53.005 205.547 53.005C202.52 50.9142 197.47 50.9142 192.402 50.9084H192.36C185.899 50.9084 179.536 52.5833 177.832 54.2349C174.8 57.1845 176.604 69.7268 181.356 74.3979C183.494 76.4984 189.606 77.0774 194.901 77.0774M145.845 77.0774C151.14 77.0774 157.253 76.4945 159.39 74.3979C164.143 69.7346 165.948 57.1845 162.915 54.2349C161.218 52.5833 154.849 50.9084 148.389 50.9084H148.355C143.286 50.9084 138.236 50.9084 135.209 53.005C135.209 53.005 129.562 57.0329 133.159 68.9069C133.996 71.6679 134.451 73.8403 136.414 75.1615C138.745 76.7276 141.217 76.9977 144.335 77.0618C144.827 77.0618 145.332 77.0774 145.845 77.0774ZM193.158 46.6182C187.937 46.6182 183.719 47.032 180.618 47.8462C178.374 48.4291 176.658 48.9246 175.28 49.319C172.737 50.0418 171.462 50.4052 170.374 50.4052C169.286 50.4052 168.009 50.0418 165.466 49.319C164.088 48.9304 162.373 48.4369 160.128 47.8462C157.02 47.032 152.809 46.6182 147.588 46.6182C138.528 46.6182 129.391 47.8365 127.615 48.1376C125.937 48.4233 124.631 48.7983 123.714 49.6921C122.466 50.922 122.548 52.5483 122.713 53.6656C123.084 56.1372 123.972 56.9085 125.777 58.2356C125.861 58.3464 126.179 58.8399 126.681 60.4915C127.087 61.8303 127.491 63.5013 127.917 65.2714C128.447 67.469 128.995 69.7404 129.64 71.7787C129.7 71.973 129.761 72.1673 129.817 72.3422C130.662 75.0391 131.393 77.3669 134.111 78.8358C136.487 80.1202 140.181 80.6215 147.285 80.6215C154.925 80.6215 159.452 79.5276 162.427 76.9647C165.536 74.2872 166.537 70.5313 167.133 68.287C167.24 67.8848 167.327 67.539 167.417 67.2689C167.904 65.7144 168.283 64.2649 168.618 62.9786C169.006 61.4514 169.356 60.1301 169.721 59.2868C169.985 58.6864 170.25 58.4222 170.374 58.3406C170.496 58.4222 170.763 58.6864 171.025 59.2868C171.392 60.1262 171.734 61.4456 172.131 62.9786C172.463 64.2649 172.842 65.7222 173.329 67.2689C173.415 67.539 173.506 67.8848 173.613 68.287C174.212 70.5313 175.21 74.2872 178.319 76.9647C181.294 79.5276 185.821 80.6215 193.461 80.6215C200.565 80.6215 204.259 80.1202 206.635 78.8358C209.356 77.3669 210.084 75.0391 210.929 72.3422C210.986 72.1595 211.046 71.971 211.106 71.7787C211.751 69.7404 212.299 67.469 212.83 65.2714C213.255 63.5013 213.659 61.8303 214.065 60.4915C214.567 58.8399 214.885 58.3542 214.969 58.2356C216.774 56.9085 217.662 56.1372 218.033 53.6656C218.2 52.5483 218.28 50.922 217.032 49.6921C216.117 48.7885 214.81 48.4135 213.131 48.1376C211.355 47.8365 202.219 46.6182 193.158 46.6182ZM194.907 75.1343C187.523 75.1343 183.768 74.0385 182.724 73.0125C180.534 70.8596 178.276 65.3064 178.29 59.7396C178.29 57.3457 178.78 56.0283 179.194 55.6261C180.188 54.6546 185.59 52.8515 192.366 52.8515H192.426C197.068 52.8515 201.869 52.8515 204.403 54.5788C204.546 54.6954 205.528 55.5504 206.206 57.4798C207.195 60.2992 207.032 64.057 205.734 68.3434C205.644 68.6387 205.559 68.9263 205.475 69.21C204.787 71.5416 204.375 72.793 203.254 73.5488C201.41 74.7885 199.415 75.0566 196.378 75.1188C195.886 75.1188 195.391 75.1343 194.907 75.1343ZM136.355 54.573C138.881 52.8553 143.69 52.8515 148.332 52.8456H148.394C155.168 52.8456 160.569 54.6527 161.564 55.6203C161.978 56.0225 162.462 57.3399 162.468 59.7337C162.478 64.1056 160.822 70.2651 158.034 73.0067C156.99 74.0326 153.242 75.1285 145.851 75.1285C145.367 75.1285 144.879 75.1285 144.38 75.113C141.343 75.0508 139.348 74.7826 137.504 73.543C136.382 72.7871 135.97 71.5358 135.283 69.2041C135.199 68.9224 135.114 68.6329 135.024 68.3376C133.726 64.0512 133.563 60.2933 134.552 57.474C135.23 55.5406 136.211 54.6896 136.355 54.573Z" fill="#040B11"/>
<path opacity="0.34" d="M123.924 52.1357C123.924 52.1357 128.319 53.5406 129.271 54.9221C130.223 56.3036 129.174 76.5812 139.818 77.2088C150.462 77.8364 160.4 78.2445 163.828 71.9393C167.255 65.6341 170.776 70.5908 170.776 70.5908H176.347C176.347 70.5908 178.739 76.9077 188.501 77.7412C198.263 78.5748 204.675 78.5068 207.56 72.6893C210.446 66.8718 209.892 57.2557 212.041 55.4117C214.19 53.5678 217.297 52.7711 217.297 52.7711L212.179 67.5655C212.179 67.5655 211.013 79.9816 201.113 79.8417C191.213 79.7018 168.112 78.2736 168.112 78.2736L144.09 80.1662C144.09 80.1662 133.233 81.4816 130.936 72.6971C128.639 63.9126 124.563 58.8781 124.563 58.8781L123.924 52.1357Z" fill="#040B11"/>
<path d="M167.296 106.123L164.85 98.9921L167.5 96.3418H172.364L175.014 98.9921L172.568 106.123H167.296Z" fill="#FFEE00"/>
<path d="M172.082 97.0213L174.233 99.1722L172.082 105.442H167.782L165.631 99.1722L167.782 97.0213H172.082ZM172.645 95.6611H167.219L166.82 96.0497L164.669 98.2007L164.069 98.8011L164.345 99.6036L166.496 105.874L166.81 106.793H173.053L173.368 105.874L175.519 99.6036L175.793 98.8011L175.195 98.2007L173.044 96.0497L172.645 95.6611Z" fill="#040B11"/>
<path d="M164.032 140.985L167.158 104.763H172.706L175.832 140.985L169.931 147.292L164.032 140.985Z" fill="#FFEE00"/>
<path d="M172.082 105.443L175.129 140.742L169.931 146.296L164.735 140.742L167.782 105.443H172.082ZM173.329 104.083H166.529L166.42 105.327L163.375 140.624L163.323 141.228L163.737 141.671L168.932 147.226L169.925 148.287L170.92 147.226L176.116 141.671L176.53 141.228L176.477 140.624L173.436 105.327L173.329 104.083Z" fill="#040B11"/>
<path d="M172.082 105.443H169.931H167.782L164.735 140.743L169.931 146.296L175.129 140.743L172.082 105.443Z" fill="#FFEE00"/>
<mask id="mask0_2513_17525" style="mask-type:luminance" maskUnits="userSpaceOnUse" x="164" y="105" width="12" height="42">
<path d="M172.082 105.443H169.931H167.782L164.735 140.743L169.931 146.296L175.129 140.743L172.082 105.443Z" fill="white"/>
</mask>
<g mask="url(#mask0_2513_17525)">
<path d="M161.263 97.8921L160.607 99.2129L200.033 118.801L200.689 117.48L161.263 97.8921Z" fill="#FFEE00"/>
<path d="M161.395 98.2811L200.301 117.601L199.912 118.401L160.999 99.0816L161.387 98.2811M161.125 97.5039L160.882 98.0227L160.494 98.8213L160.216 99.3362L160.739 99.5946L199.644 118.924L200.165 119.182L200.425 118.66L200.814 117.861L201.074 117.339L200.552 117.08L161.66 97.7604L161.139 97.5L161.125 97.5039Z" fill="#040B11"/>
<path d="M160.337 99.7584L159.681 101.079L199.107 120.667L199.763 119.347L160.337 99.7584Z" fill="#FFEE00"/>
<path d="M160.468 100.146L199.374 119.474L198.976 120.274L160.072 100.947L160.461 100.146M160.198 99.3691L159.938 99.8918L159.549 100.69L159.291 101.213L159.812 101.471L198.717 120.801L199.238 121.059L199.498 120.537L199.887 119.738L200.147 119.215L199.632 118.961L160.729 99.6256L160.206 99.3652L160.198 99.3691Z" fill="#040B11"/>
<path d="M159.41 101.62L158.754 102.94L198.18 122.529L198.836 121.208L159.41 101.62Z" fill="#FFEE00"/>
<path d="M159.542 102.012L198.447 121.339L198.049 122.14L159.145 102.812L159.534 102.012M159.272 101.234L159.011 101.757L158.623 102.556L158.356 103.074L158.877 103.333L197.8 122.662L198.323 122.921L198.581 122.398L198.97 121.599L199.23 121.077L198.708 120.818L159.802 101.491L159.279 101.23L159.272 101.234Z" fill="#040B11"/>
<path d="M158.485 103.486L157.828 104.807L197.254 124.395L197.91 123.074L158.485 103.486Z" fill="#FFEE00"/>
<path d="M158.615 103.877L197.52 123.204L197.132 124.005L158.218 104.677L158.607 103.877M158.345 103.1L158.094 103.611L157.705 104.409L157.447 104.932L157.968 105.19L196.873 124.52L197.396 124.778L197.654 124.255L198.043 123.457L198.303 122.934L197.781 122.676L158.875 103.356L158.356 103.096L158.345 103.1Z" fill="#040B11"/>
<path d="M157.557 105.351L156.901 106.672L196.326 126.26L196.982 124.939L157.557 105.351Z" fill="#FFEE00"/>
<path d="M157.688 105.748L196.594 125.075L196.205 125.876L157.292 106.543L157.68 105.742M157.418 104.965L157.159 105.488L156.771 106.286L156.512 106.809L157.033 107.067L195.939 126.395L196.462 126.655L196.72 126.132L197.118 125.334L197.377 124.811L196.854 124.553L157.948 105.221L157.426 104.971L157.418 104.965Z" fill="#040B11"/>
<path d="M156.631 107.217L155.975 108.538L195.4 128.126L196.057 126.806L156.631 107.217Z" fill="#FFEE00"/>
<path d="M156.761 107.607L195.663 126.927L195.274 127.728L156.365 108.408L156.753 107.607M156.491 106.83L156.232 107.353L155.834 108.151L155.583 108.662L156.106 108.921L195.01 128.248L195.533 128.509L195.791 127.986L196.189 127.187L196.448 126.665L195.925 126.406L157.021 107.087L156.499 106.826L156.491 106.83Z" fill="#040B11"/>
<path d="M155.705 109.083L155.049 110.403L194.474 129.992L195.131 128.671L155.705 109.083Z" fill="#FFEE00"/>
<path d="M155.83 109.473L194.734 128.801L194.345 129.602L155.442 110.274L155.83 109.473ZM155.566 108.696L155.308 109.219L154.915 110.023L154.664 110.536L155.187 110.795L194.091 130.122L194.613 130.383L194.872 129.86L195.27 129.061L195.529 128.539L195 128.288L156.095 108.953L155.572 108.692L155.566 108.696Z" fill="#040B11"/>
<path d="M154.777 110.948L154.121 112.269L193.547 131.857L194.203 130.536L154.777 110.948Z" fill="#FFEE00"/>
<path d="M154.909 111.338L193.813 130.665L193.424 131.466L154.511 112.138L154.9 111.338M154.635 110.561L154.377 111.083L153.988 111.882L153.728 112.404L154.251 112.663L193.156 131.979L193.679 132.239L193.937 131.716L194.326 130.918L194.584 130.395L194.064 130.137L155.168 110.817L154.645 110.557L154.635 110.561Z" fill="#040B11"/>
<path d="M153.851 112.814L153.195 114.135L192.621 133.723L193.277 132.402L153.851 112.814Z" fill="#FFEE00"/>
<path d="M153.983 113.204L192.886 132.531L192.498 133.332L153.584 114.004L153.973 113.204M153.709 112.427L153.46 112.938L153.071 113.736L152.811 114.259L153.334 114.517L192.237 133.845L192.748 134.117L193.009 133.594L193.397 132.796L193.656 132.273L193.135 132.015L154.241 112.683L153.718 112.423L153.709 112.427Z" fill="#040B11"/>
<path d="M152.924 114.68L152.267 116.001L191.693 135.589L192.349 134.268L152.924 114.68Z" fill="#FFEE00"/>
<path d="M153.056 115.075L191.959 134.403L191.571 135.203L152.657 115.87L153.056 115.069M152.793 114.292L152.527 114.811L152.139 115.609L151.878 116.132L152.401 116.39L191.305 135.718L191.827 135.978L192.088 135.456L192.476 134.657L192.735 134.134L192.214 133.876L153.314 114.548L152.793 114.298V114.292Z" fill="#040B11"/>
<path d="M151.998 116.544L151.341 117.864L190.767 137.452L191.423 136.132L151.998 116.544Z" fill="#FFEE00"/>
<path d="M152.139 116.934L191.033 136.254L190.644 137.055L151.731 117.735L152.129 116.934M151.867 116.157L151.606 116.68L151.218 117.478L150.949 117.99L151.472 118.248L190.378 137.583L190.899 137.844L191.159 137.321L191.548 136.522L191.808 136L191.285 135.741L152.387 116.414L151.867 116.153V116.157Z" fill="#040B11"/>
<path d="M151.07 118.41L150.414 119.73L189.839 139.319L190.495 137.998L151.07 118.41Z" fill="#FFEE00"/>
<path d="M151.202 118.8L190.106 138.127L189.717 138.928L150.806 119.6L151.194 118.8M150.932 118.022L150.672 118.545L150.283 119.344L150.023 119.866L150.545 120.127L189.445 139.448L189.966 139.709L190.226 139.186L190.615 138.388L190.875 137.865L190.366 137.614L151.46 118.279L150.94 118.019L150.932 118.022Z" fill="#040B11"/>
<path d="M150.144 120.276L149.488 121.597L188.913 141.185L189.57 139.864L150.144 120.276Z" fill="#FFEE00"/>
<path d="M150.275 120.666L189.181 139.993L188.792 140.794L149.879 121.466L150.267 120.666M150.005 119.889L149.745 120.411L149.356 121.21L149.096 121.733L149.618 121.991L188.524 141.307L189.045 141.567L189.305 141.045L189.694 140.246L189.954 139.723L189.445 139.473L150.534 120.145L150.013 119.885L150.005 119.889Z" fill="#040B11"/>
<path d="M149.218 122.139L148.562 123.46L187.988 143.048L188.644 141.727L149.218 122.139Z" fill="#FFEE00"/>
<path d="M149.348 122.53L188.254 141.858L187.865 142.658L148.952 123.331L149.341 122.53M149.078 121.753L148.835 122.264L148.447 123.063L148.188 123.585L148.709 123.844L187.615 143.171L188.135 143.431L188.396 142.909L188.784 142.11L189.045 141.588L188.522 141.329L149.613 122.007L149.09 121.749L149.078 121.753Z" fill="#040B11"/>
<path d="M148.291 124.004L147.635 125.325L187.061 144.913L187.717 143.593L148.291 124.004Z" fill="#FFEE00"/>
<path d="M148.422 124.401L187.327 143.729L186.929 144.529L148.025 125.196L148.414 124.395M148.152 123.618L147.893 124.141L147.495 124.939L147.236 125.462L147.757 125.721L186.663 145.048L187.185 145.308L187.444 144.786L187.832 143.987L188.093 143.464L187.57 143.206L148.682 123.873L148.159 123.624L148.152 123.618Z" fill="#040B11"/>
<path d="M147.365 125.87L146.709 127.19L186.135 146.779L186.791 145.458L147.365 125.87Z" fill="#FFEE00"/>
<path d="M147.495 126.262L186.4 145.581L186.002 146.382L147.098 127.062L147.487 126.262M147.224 125.484L146.966 126.007L146.568 126.806L146.309 127.317L146.83 127.575L185.753 146.91L186.276 147.171L186.534 146.648L186.923 145.849L187.183 145.327L186.661 145.068L147.755 125.739L147.232 125.48L147.224 125.484Z" fill="#040B11"/>
<path d="M146.437 127.736L145.781 129.057L185.207 148.645L185.863 147.324L146.437 127.736Z" fill="#FFEE00"/>
<path d="M146.568 128.126L185.474 147.453L185.085 148.254L146.171 128.926L146.56 128.126M146.298 127.349L146.039 127.871L145.651 128.67L145.392 129.193L145.921 129.453L184.826 148.78L185.349 149.041L185.608 148.518L185.996 147.72L186.255 147.197L185.732 146.938L146.828 127.603L146.309 127.345L146.298 127.349Z" fill="#040B11"/>
<path d="M145.511 129.6L144.855 130.921L184.281 150.509L184.937 149.188L145.511 129.6Z" fill="#FFEE00"/>
<path d="M145.641 129.992L184.547 149.32L184.158 150.12L145.245 130.793L145.633 129.992M145.371 129.215L145.113 129.738L144.714 130.536L144.456 131.059L144.978 131.317L183.89 150.633L184.413 150.893L184.671 150.371L185.069 149.572L185.328 149.049L184.805 148.791L145.901 129.469L145.379 129.211L145.371 129.215Z" fill="#040B11"/>
<path d="M144.584 131.465L143.927 132.786L183.353 152.374L184.009 151.054L144.584 131.465Z" fill="#FFEE00"/>
<path d="M144.716 131.856L183.616 151.184L183.227 151.984L144.318 132.657L144.716 131.856ZM144.452 131.079L144.193 131.59L143.795 132.389L143.537 132.911L144.059 133.17L182.963 152.497L183.486 152.758L183.744 152.235L184.143 151.436L184.401 150.914L183.88 150.655L144.975 131.334L144.452 131.075V131.079Z" fill="#040B11"/>
<path d="M143.658 133.332L143.002 134.652L182.427 154.241L183.084 152.92L143.658 133.332Z" fill="#FFEE00"/>
<path d="M143.784 133.728L182.687 153.056L182.299 153.856L143.395 134.523L143.784 133.723M143.519 132.945L143.261 133.468L142.872 134.267L142.618 134.785L143.14 135.044L182.044 154.371L182.567 154.632L182.825 154.109L183.223 153.31L183.482 152.788L182.961 152.529L144.048 133.2L143.525 132.951L143.519 132.945Z" fill="#040B11"/>
<path d="M142.732 135.198L142.076 136.519L181.501 156.107L182.158 154.786L142.732 135.198Z" fill="#FFEE00"/>
<path d="M142.862 135.588L181.766 154.907L181.378 155.708L142.464 136.386L142.862 135.588ZM142.598 134.811L142.34 135.333L141.951 136.132L141.683 136.643L142.206 136.901L181.109 156.229L181.632 156.489L181.892 155.966L182.281 155.168L182.539 154.645L182.019 154.385L143.121 135.065L142.598 134.807V134.811Z" fill="#040B11"/>
<path d="M141.804 137.062L141.148 138.383L180.574 157.971L181.23 156.65L141.804 137.062Z" fill="#FFEE00"/>
<path d="M141.936 137.453L180.839 156.78L180.451 157.581L141.537 138.252L141.936 137.453ZM141.673 136.676L141.413 137.198L141.024 137.997L140.764 138.52L141.287 138.778L180.19 158.106L180.713 158.366L180.973 157.843L181.362 157.045L181.621 156.522L181.1 156.262L142.194 136.93L141.673 136.672V136.676Z" fill="#040B11"/>
<path d="M140.878 138.928L140.222 140.249L179.648 159.837L180.304 158.517L140.878 138.928Z" fill="#FFEE00"/>
<path d="M141.009 139.318L179.912 158.646L179.524 159.446L140.618 140.117L141.017 139.318M140.754 138.541L140.48 139.06L140.092 139.858L139.831 140.381L140.354 140.639L179.258 159.959L179.778 160.22L180.039 159.697L180.427 158.898L180.688 158.376L180.165 158.115L141.267 138.796L140.746 138.537L140.754 138.541Z" fill="#040B11"/>
</g>
<path d="M172.082 97.0215H169.931H167.782L165.631 99.1724L167.782 105.443H169.931H172.082L174.233 99.1724L172.082 97.0215Z" fill="#FFEE00"/>
<mask id="mask1_2513_17525" style="mask-type:luminance" maskUnits="userSpaceOnUse" x="165" y="97" width="10" height="9">
<path d="M172.082 97.0205H169.931H167.782L165.631 99.1715L167.782 105.442H169.931H172.082L174.233 99.1715L172.082 97.0205Z" fill="white"/>
</mask>
<g mask="url(#mask1_2513_17525)">
<path d="M192.752 77.1149L153.327 96.7031L153.983 98.0239L193.409 78.4357L192.752 77.1149Z" fill="#FFEE00"/>
<path d="M192.62 77.5116L193.009 78.3101L154.113 97.6376L153.724 96.8391L192.628 77.5116M192.89 76.7343L192.36 76.9908L153.456 96.3164L152.933 96.5748L153.194 97.0975L153.582 97.898L153.843 98.4188L154.363 98.1603L193.269 78.8328L193.792 78.5725L193.531 78.0498L193.143 77.2512L192.882 76.7285L192.89 76.7343Z" fill="#040B11"/>
<path d="M193.68 78.9782L154.254 98.5664L154.91 99.8871L194.336 80.2989L193.68 78.9782Z" fill="#FFEE00"/>
<path d="M193.547 79.3758L193.935 80.1744L155.039 99.5019L154.651 98.7033L193.556 79.3758M193.819 78.5986L193.298 78.859L154.383 98.1806L153.86 98.4391L154.12 98.9617L154.509 99.7603L154.769 100.283L155.29 100.025L194.196 80.6971L194.718 80.4367L194.458 79.914L194.069 79.1155L193.809 78.5928L193.819 78.5986Z" fill="#040B11"/>
<path d="M194.605 80.8434L155.18 100.432L155.836 101.752L195.262 82.1642L194.605 80.8434Z" fill="#FFEE00"/>
<path d="M194.474 81.2401L194.862 82.0406L155.966 101.368L155.568 100.57L194.474 81.2401ZM194.736 80.4629L194.213 80.7233L155.31 100.047L154.787 100.307L155.047 100.83L155.436 101.628L155.696 102.151L156.217 101.893L195.123 82.5653L195.643 82.3049L195.385 81.7822L194.996 80.9836L194.736 80.4609V80.4629Z" fill="#040B11"/>
<path d="M195.533 82.7087L156.107 102.297L156.763 103.618L196.189 84.0294L195.533 82.7087Z" fill="#FFEE00"/>
<path d="M195.4 83.1053L195.789 83.9059L156.893 103.233L156.495 102.444L195.4 83.115M195.663 82.3378L195.14 82.5982L156.236 101.912L155.714 102.171L155.974 102.693L156.363 103.492L156.621 104.014L157.144 103.756L196.051 84.4285L196.572 84.1682L196.314 83.6455L195.925 82.8469L195.663 82.3242V82.3378Z" fill="#040B11"/>
<path d="M196.46 84.5739L157.035 104.162L157.691 105.483L197.117 85.8946L196.46 84.5739Z" fill="#FFEE00"/>
<path d="M196.327 84.9706L196.716 85.7711L157.82 105.099L157.431 104.3L196.337 84.9706M196.599 84.1933L196.077 84.4537L157.163 103.777L156.641 104.036L156.901 104.558L157.29 105.357L157.548 105.88L158.071 105.621L196.984 86.2938L197.505 86.0334L197.246 85.5107L196.858 84.7121L196.599 84.1895V84.1933Z" fill="#040B11"/>
<path d="M197.388 86.4401L157.962 106.028L158.618 107.349L198.044 87.7608L197.388 86.4401Z" fill="#FFEE00"/>
<path d="M197.254 86.8358L197.643 87.6363L158.745 106.964L158.356 106.165L197.262 86.8358M197.524 86.0586L196.994 86.317L158.09 105.643L157.567 105.901L157.826 106.424L158.224 107.222L158.483 107.745L159.005 107.487L197.911 88.159L198.432 87.8986L198.173 87.376L197.785 86.5774L197.526 86.0547L197.524 86.0586Z" fill="#040B11"/>
<path d="M198.313 88.3044L158.888 107.893L159.544 109.213L198.969 89.6251L198.313 88.3044Z" fill="#FFEE00"/>
<path d="M198.189 88.702L198.577 89.5025L159.672 108.83L159.283 108.031L198.189 88.702ZM198.451 87.9248L197.928 88.1852L159.017 107.509L158.494 107.767L158.753 108.29L159.151 109.088L159.409 109.611L159.932 109.353L198.836 90.0252L199.358 89.7648L199.1 89.2422L198.702 88.4436L198.443 87.9209L198.451 87.9248Z" fill="#040B11"/>
<path d="M199.241 90.1706L159.815 109.759L160.471 111.08L199.897 91.4913L199.241 90.1706Z" fill="#FFEE00"/>
<path d="M199.108 90.5663L199.497 91.3668L160.599 110.694L160.21 109.896L199.116 90.5663M199.378 89.789L198.855 90.0494L159.942 109.373L159.421 109.633L159.68 110.156L160.078 110.955L160.336 111.477L160.859 111.219L199.763 91.8895L200.285 91.6291L200.027 91.1064L199.629 90.3078L199.37 89.7852L199.378 89.789Z" fill="#040B11"/>
</g>
<path d="M172.77 104.798H166.964V106.432H172.77V104.798Z" fill="#040B11"/>
<defs>
<filter id="filter0_b_2513_17525" x="65" y="-25" width="210" height="210" filterUnits="userSpaceOnUse" color-interpolation-filters="sRGB">
<feFlood flood-opacity="0" result="BackgroundImageFix"/>
<feGaussianBlur in="BackgroundImageFix" stdDeviation="20"/>
<feComposite in2="SourceAlpha" operator="in" result="effect1_backgroundBlur_2513_17525"/>
<feBlend mode="normal" in="SourceGraphic" in2="effect1_backgroundBlur_2513_17525" result="shape"/>
</filter>
<linearGradient id="paint0_linear_2513_17525" x1="114.564" y1="145" x2="263.383" y2="78.9576" gradientUnits="userSpaceOnUse">
<stop stop-color="#080C0F" stop-opacity="0.5"/>
<stop offset="1" stop-color="#555555" stop-opacity="0"/>
</linearGradient>
<radialGradient id="paint1_radial_2513_17525" cx="0" cy="0" r="1" gradientUnits="userSpaceOnUse" gradientTransform="translate(238.33 145) rotate(-136.496) scale(201.872 417.139)">
<stop/>
<stop offset="0.552083" stop-color="#BABABA" stop-opacity="0.489583"/>
<stop offset="0.992454" stop-color="#848484" stop-opacity="0"/>
</radialGradient>
</defs>
</svg>
